<?xml version="1.0" encoding="utf-8"?>
<svg version="1.0" width="512pt" height="512pt" viewBox="0 0 512 512" preserveAspectRatio="xMidYMid meet" xmlns="http://www.w3.org/2000/svg" xmlns:bx="https://boxy-svg.com">
  <g transform="matrix(0.1, 0, 0, -0.1, -5.952001, 501.845093)" fill="#000000" stroke="none" bx:origin="0.503016 0.496158">
    <path d="M3465 4643 c-236 -50 -491 -196 -712 -407 -35 -32 -63 -62 -63 -66 0 -4 52 -56 116 -114 l115 -107 83 78 c212 201 418 314 572 315 103 0 160 -44 200 -157 14 -40 18 -82 18 -215 0 -265 -57 -543 -174 -856 l-51 -134 64 -97 c34 -54 82 -128 106 -165 24 -38 45 -68 46 -68 4 0 72 176 105 275 81 237 144 475 180 680 27 149 38 468 21 571 -61 361 -298 538 -626 467z"/>
    <path d="M1565 4640 c-233 -36 -385 -167 -440 -376 -37 -142 -45 -417 -16 -515 36 -117 130 -171 219 -125 63 32 86 118 97 351 13 291 53 365 197 365 100 0 211 -54 422 -204 372 -266 737 -684 1060 -1215 232 -381 463 -872 563 -1196 126 -407 161 -734 101 -942 -84 -292 -375 -230 -834 177 -113 101 -251 248 -343 367 l-56 73 -130 0 c-71 0 -160 3 -197 7 -47 4 -68 2 -68 -5 0 -14 185 -261 274 -367 159 -188 392 -404 553 -512 230 -156 407 -223 585 -223 444 0 648 443 517 1120 -82 423 -297 973 -566 1450 -441 780 -948 1373 -1395 1629 -194 111 -398 164 -543 141z"/>
    <path d="M2203 3648 c-222 -264 -362 -485 -398 -626 -15 -59 -15 -65 2 -100 24 -49 99 -95 156 -96 34 -1 51 5 78 28 45 38 99 111 165 222 29 49 109 168 178 263 69 95 126 176 126 180 0 12 -216 211 -228 211 -5 0 -41 -37 -79 -82z"/>
    <path d="M1230 3286 c-268 -72 -616 -218 -799 -336 -76 -49 -154 -121 -192 -176 -106 -154 -106 -437 0 -603 105 -163 348 -299 771 -432 293 -92 798 -199 1045 -220 197 -18 632 -16 990 3 374 20 511 39 509 69 -1 8 -21 74 -45 148 l-44 134 -80 -7 c-580 -46 -935 -58 -1151 -40 -443 37 -706 83 -1094 191 -434 121 -670 280 -670 453 0 122 124 244 365 360 118 56 188 79 350 115 196 43 271 71 321 119 41 40 44 46 44 95 0 137 -114 182 -320 127z"/>
    <path d="M4215 3165 c-69 -35 -116 -119 -101 -179 16 -64 75 -105 224 -157 120 -42 209 -91 275 -149 60 -55 107 -135 107 -185 0 -152 -194 -312 -567 -470 -62 -26 -113 -52 -113 -57 0 -5 26 -68 57 -139 65 -148 44 -138 198 -87 248 83 505 255 629 421 94 127 126 210 126 333 0 221 -139 393 -469 579 -164 92 -296 125 -366 90z"/>
    <path d="M1499 2797 c-43 -29 -59 -60 -59 -118 0 -101 92 -313 253 -579 l82 -135 155 -8 c85 -4 170 -6 188 -5 l32 3 -53 80 c-76 114 -116 189 -195 365 -106 237 -174 343 -251 391 -56 36 -105 38 -152 6z"/>
    <path d="M1248 1410 c-96 -29 -141 -93 -159 -225 -14 -108 -6 -312 16 -405 78 -328 285 -503 575 -487 145 8 272 59 474 191 104 68 336 254 336 269 0 7 -47 61 -104 121 l-103 110 -25 -20 c-14 -10 -60 -49 -103 -86 -201 -175 -400 -278 -532 -278 -77 1 -132 35 -168 105 -29 57 -30 63 -30 194 1 75 5 195 9 266 8 123 8 133 -13 173 -33 64 -103 93 -173 72z"/>
    <g origin="-2.428453 -2.137053" transform="matrix(10, 0, 0, -10, 25.029757, 5088.800293)">
      <path d="M256.25 244.955a6.258 6.258 0 00-6.25 6.25v6.25h12.5v-6.25a6.258 6.258 0 00-6.25-6.25z" style="fill: rgb(134, 0, 56);"/>
      <path d="M296.45 214.32a6.253 6.253 0 00-6.619.766c-7.81 6.277-21.866 6.274-29.663.003a6.253 6.253 0 00-7.837-.003c-7.806 6.277-21.868 6.274-29.663.003a6.251 6.251 0 00-10.168 4.868l-.003 50c0 19.589 15.704 35.85 42.007 43.501a6.282 6.282 0 003.492 0C284.299 305.808 300 289.55 300 269.957v-50c0-2.406-1.38-4.6-3.55-5.637zM275 276.205a6.25 6.25 0 01-6.25 6.25h-25a6.25 6.25 0 01-6.25-6.25v-12.5a6.25 6.25 0 016.25-6.25v-6.25c0-6.891 5.606-12.5 12.5-12.5s12.5 5.609 12.5 12.5v6.25a6.25 6.25 0 016.25 6.25v12.5z" style="fill: rgb(134, 0, 56);"/>
      <path d="M256.25 266.83a3.125 3.125 0 100 6.25 3.125 3.125 0 000-6.25z" style="fill: rgb(134, 0, 56);"/>
    </g>
  </g>
</svg>