<svg xmlns="http://www.w3.org/2000/svg" version="1.0" viewBox="0 0 512 512">
  <path d="M340.548 37.545c-23.6 5-49.1 19.6-71.2 40.7-3.5 3.2-6.3 6.2-6.3 6.6 0 .4 5.2 5.6 11.6 11.4l11.5 10.7 8.3-7.8c21.2-20.1 41.8-31.4 57.2-31.5 10.3 0 16 4.4 20 15.7 1.4 4 1.8 8.2 1.8 21.5 0 26.5-5.7 54.3-17.4 85.6l-5.1 13.4 6.4 9.7c3.4 5.4 8.2 12.8 10.6 16.5 2.4 3.8 4.5 6.8 4.6 6.8.4 0 7.2-17.6 10.5-27.5 8.1-23.7 14.4-47.5 18-68 2.7-14.9 3.8-46.8 2.1-57.1-6.1-36.1-29.8-53.8-62.6-46.7zM150.548 37.845c-23.3 3.6-38.5 16.7-44 37.6-3.7 14.2-4.5 41.7-1.6 51.5 3.6 11.7 13 17.1 21.9 12.5 6.3-3.2 8.6-11.8 9.7-35.1 1.3-29.1 5.3-36.5 19.7-36.5 10 0 21.1 5.4 42.2 20.4 37.2 26.6 73.7 68.4 106 121.5 23.2 38.1 46.3 87.2 56.3 119.6 12.6 40.7 16.1 73.4 10.1 94.2-8.4 29.2-37.5 23-83.4-17.7-11.3-10.1-25.1-24.8-34.3-36.7l-5.6-7.3h-13c-7.1 0-16-.3-19.7-.7-4.7-.4-6.8-.2-6.8.5 0 1.4 18.5 26.1 27.4 36.7 15.9 18.8 39.2 40.4 55.3 51.2 23 15.6 40.7 22.3 58.5 22.3 44.4 0 64.8-44.3 51.7-112-8.2-42.3-29.7-97.3-56.6-145-44.1-78-94.8-137.3-139.5-162.9-19.4-11.1-39.8-16.4-54.3-14.1z"/>
  <path d="M214.348 137.045c-22.2 26.4-36.2 48.5-39.8 62.6-1.5 5.9-1.5 6.5.2 10 2.4 4.9 9.9 9.5 15.6 9.6 3.4.1 5.1-.5 7.8-2.8 4.5-3.8 9.9-11.1 16.5-22.2 2.9-4.9 10.9-16.8 17.8-26.3s12.6-17.6 12.6-18c0-1.2-21.6-21.1-22.8-21.1-.5 0-4.1 3.7-7.9 8.2z"/>
  <path d="M117.048 173.245c-26.8 7.2-61.6 21.8-79.9 33.6-7.6 4.9-15.4 12.1-19.2 17.6-10.6 15.4-10.6 43.7 0 60.3 10.5 16.3 34.8 29.9 77.1 43.2 29.3 9.2 79.8 19.9 104.5 22 19.7 1.8 63.2 1.6 99-.3 37.4-2 51.1-3.9 50.9-6.9-.1-.8-2.1-7.4-4.5-14.8l-4.4-13.4-8 .7c-58 4.6-93.5 5.8-115.1 4-44.3-3.7-70.6-8.3-109.4-19.1-43.4-12.1-67-28-67-45.3 0-12.2 12.4-24.4 36.5-36 11.8-5.6 18.8-7.9 35-11.5 19.6-4.3 27.1-7.1 32.1-11.9 4.1-4 4.4-4.6 4.4-9.5 0-13.7-11.4-18.2-32-12.7zM415.548 185.345c-6.9 3.5-11.6 11.9-10.1 17.9 1.6 6.4 7.5 10.5 22.4 15.7 12 4.2 20.9 9.1 27.5 14.9 6 5.5 10.7 13.5 10.7 18.5 0 15.2-19.4 31.2-56.7 47-6.2 2.6-11.3 5.2-11.3 5.7s2.6 6.8 5.7 13.9c6.5 14.8 4.4 13.8 19.8 8.7 24.8-8.3 50.5-25.5 62.9-42.1 9.4-12.7 12.6-21 12.6-33.3 0-22.1-13.9-39.3-46.9-57.9-16.4-9.2-29.6-12.5-36.6-9z"/>
  <path d="M143.948 222.145c-4.3 2.9-5.9 6-5.9 11.8 0 10.1 9.2 31.3 25.3 57.9l8.2 13.5 15.5.8c8.5.4 17 .6 18.8.5l3.2-.3-5.3-8c-7.6-11.4-11.6-18.9-19.5-36.5-10.6-23.7-17.4-34.3-25.1-39.1-5.6-3.6-10.5-3.8-15.2-.6zM118.848 360.845c-9.6 2.9-14.1 9.3-15.9 22.5-1.4 10.8-.6 31.2 1.6 40.5 7.8 32.8 28.5 50.3 57.5 48.7 14.5-.8 27.2-5.9 47.4-19.1 10.4-6.8 33.6-25.4 33.6-26.9 0-.7-4.7-6.1-10.4-12.1l-10.3-11-2.5 2c-1.4 1-6 4.9-10.3 8.6-20.1 17.5-40 27.8-53.2 27.8-7.7-.1-13.2-3.5-16.8-10.5-2.9-5.7-3-6.3-3-19.4.1-7.5.5-19.5.9-26.6.8-12.3.8-13.3-1.3-17.3-3.3-6.4-10.3-9.3-17.3-7.2z"/>
  <g fill="#860038">
    <path d="M252.801 237.92a6.258 6.258 0 00-6.25 6.25v6.25h12.5v-6.25a6.258 6.258 0 00-6.25-6.25z"/>
    <path d="M293.001 207.285a6.253 6.253 0 00-6.619.766c-7.81 6.277-21.866 6.274-29.663.003a6.253 6.253 0 00-7.837-.003c-7.806 6.277-21.868 6.274-29.663.003a6.251 6.251 0 00-10.168 4.868l-.003 50c0 19.59 15.704 35.85 42.007 43.501a6.282 6.282 0 003.492 0c26.303-7.65 42.004-23.908 42.004-43.5v-50c0-2.407-1.38-4.6-3.55-5.638zm-21.45 61.885a6.25 6.25 0 01-6.25 6.25h-25a6.25 6.25 0 01-6.25-6.25v-12.5a6.25 6.25 0 016.25-6.25v-6.25c0-6.89 5.606-12.5 12.5-12.5s12.5 5.61 12.5 12.5v6.25a6.25 6.25 0 016.25 6.25v12.5z"/>
    <path d="M252.801 259.795a3.125 3.125 0 100 6.25 3.125 3.125 0 000-6.25z"/>
  </g>
</svg>
