<svg xmlns="http://www.w3.org/2000/svg" viewBox="0 0 162.8 100">
  <path d="M7.958.309C5.281 1.32 2.604 3.853 1.375 6.603.217 9.135 0 11.45 0 22.229c0 11.792.145 12.95 1.664 15.916.868 1.809 2.677 3.979 4.051 4.847l2.46 1.664h146.426l2.46-1.664c1.375-.868 3.183-3.038 4.124-4.847 1.447-2.966 1.591-4.124 1.591-15.916 0-14.324-.723-17.218-5.136-20.329L155.18.164 82.112.019C41.888-.053 8.537.092 7.958.31zm31.687 22.065l-.217 16.856-12.66.217c-14.614.217-16.857-.072-19.244-2.387-1.736-1.736-1.736-2.026-1.736-14.83 0-17.87-1.375-16.64 18.81-16.64H39.79l-.145 16.784zM155.18 7.398c1.809 1.737 1.809 1.954 1.809 14.47 0 7.74-.29 13.31-.796 14.251-1.881 3.473-2.098 3.473-58.166 3.473h-52.45V5.59H153.444l1.736 1.808z"/>
  <path d="M20.474 10.437c-2.46.506-5.86 4.268-6.44 7.09-.288 1.736 0 3.328.87 5.209 1.374 2.676 1.374 2.821 0 5.498-1.086 2.242-1.158 3.11-.58 4.557 1.303 2.75 5.21 1.881 5.21-1.157 0-.651.65-1.809 1.446-2.532 2.026-1.809 4.775-.579 5.426 2.46.868 3.979 5.426 3.545 5.426-.58-.073-1.012-.507-2.676-1.013-3.689-.868-1.519-.868-2.098 0-3.762 2.46-4.847.434-10.562-4.485-12.588-2.46-1.013-2.967-1.085-5.86-.506zm4.774 6.294c.507.579.796 1.953.652 3.11-.145 1.592-.652 2.099-2.243 2.243-3.69.435-5.354-2.387-2.894-5.064 1.375-1.591 3.328-1.664 4.485-.29zM5.715 57.172c-1.374.868-3.183 3.038-4.051 4.847C.144 64.985 0 66.143 0 77.935c0 14.324.723 17.218 5.136 20.329L7.596 100H155.18l2.46-1.736c4.413-3.111 5.136-6.005 5.136-20.33 0-11.791-.144-12.949-1.591-15.915-.94-1.809-2.75-3.98-4.124-4.847l-2.46-1.664H8.175l-2.46 1.664zm33.93 20.546l.145 16.856H24.597c-20.184 0-18.81 1.158-18.81-16.277 0-7.741.29-13.312.796-14.18 1.592-3.039 4.486-3.545 19.1-3.328l13.745.145.217 16.784zM153.01 61.585c1.302.579 2.749 1.664 3.183 2.46.506.94.796 6.51.796 14.252 0 12.515 0 12.732-1.809 14.469l-1.736 1.808H45.577V60.572h52.45c43.625 0 52.885.145 54.983 1.013z"/>
  <path d="M18.448 65.057c-3.256 2.532-3.979 5.354-3.979 15.627 0 6.294.29 9.694.94 10.49.796 1.085 1.954 1.23 8.827 1.085l7.958-.217.217-7.162c.144-5.281-.073-7.38-.724-7.813-.506-.29-3.328-.58-6.15-.58h-5.28V74.1c0-3.327 1.374-4.991 3.979-4.702 1.591.145 2.242.724 2.893 2.75.724 2.097 1.23 2.531 2.967 2.531 1.808 0 2.098-.29 2.315-2.315.65-6.945-8.392-11.72-13.963-7.307zm9.043 19.389c0 2.098-.072 2.17-3.617 2.17s-3.617-.072-3.617-2.17.072-2.17 3.617-2.17 3.617.072 3.617 2.17z"/>
</svg>
