<?xml version="1.0" encoding="utf-8"?>
<svg viewBox="0 0 162.8 100" xmlns="http://www.w3.org/2000/svg">
  <g transform="matrix(0.072345, 0, 0, -0.072345, 0, 131.470078)">
    <path d="M 110 1813 C 73 1799 36 1764 19 1726 C 3 1691 0 1659 0 1510 C 0 1347 2 1331 23 1290 C 35 1265 60 1235 79 1223 L 113 1200 L 1125 1200 L 2137 1200 L 2171 1223 C 2190 1235 2215 1265 2228 1290 C 2248 1331 2250 1347 2250 1510 C 2250 1708 2240 1748 2179 1791 L 2145 1815 L 1135 1817 C 579 1818 118 1816 110 1813 Z M 548 1508 L 545 1275 L 370 1272 C 168 1269 137 1273 104 1305 C 80 1329 80 1333 80 1510 C 80 1757 61 1740 340 1740 L 550 1740 L 548 1508 Z M 2145 1715 C 2170 1691 2170 1688 2170 1515 C 2170 1408 2166 1331 2159 1318 C 2133 1270 2130 1270 1355 1270 L 630 1270 L 630 1505 L 630 1740 L 1375 1740 L 2121 1740 L 2145 1715 Z" style=""/>
    <path d="M 283 1673 C 249 1666 202 1614 194 1575 C 190 1551 194 1529 206 1503 C 225 1466 225 1464 206 1427 C 191 1396 190 1384 198 1364 C 216 1326 270 1338 270 1380 C 270 1389 279 1405 290 1415 C 318 1440 356 1423 365 1381 C 377 1326 440 1332 440 1389 C 439 1403 433 1426 426 1440 C 414 1461 414 1469 426 1492 C 460 1559 432 1638 364 1666 C 330 1680 323 1681 283 1673 Z M 349 1586 C 356 1578 360 1559 358 1543 C 356 1521 349 1514 327 1512 C 276 1506 253 1545 287 1582 C 306 1604 333 1605 349 1586 Z"/>
    <path d="M 79 1027 C 60 1015 35 985 23 960 C 2 919 0 903 0 740 C 0 542 10 502 71 459 L 105 435 L 1125 435 L 2145 435 L 2179 459 C 2240 502 2250 542 2250 740 C 2250 903 2248 919 2228 960 C 2215 985 2190 1015 2171 1027 L 2137 1050 L 1125 1050 L 113 1050 L 79 1027 Z M 548 743 L 550 510 L 340 510 C 61 510 80 494 80 735 C 80 842 84 919 91 931 C 113 973 153 980 355 977 L 545 975 L 548 743 Z M 2115 966 C 2133 958 2153 943 2159 932 C 2166 919 2170 842 2170 735 C 2170 562 2170 559 2145 535 L 2121 510 L 1375 510 L 630 510 L 630 745 L 630 980 L 1355 980 C 1958 980 2086 978 2115 966 Z" style=""/>
    <path d="M 255 918 C 210 883 200 844 200 702 C 200 615 204 568 213 557 C 224 542 240 540 335 542 L 445 545 L 448 644 C 450 717 447 746 438 752 C 431 756 392 760 353 760 L 280 760 L 280 793 C 280 839 299 862 335 858 C 357 856 366 848 375 820 C 385 791 392 785 416 785 C 441 785 445 789 448 817 C 457 913 332 979 255 918 Z M 380 650 C 380 621 379 620 330 620 C 281 620 280 621 280 650 C 280 679 281 680 330 680 C 379 680 380 679 380 650 Z"/>
  </g>
</svg>
